<?xml version="1.0" encoding="UTF-8" standalone="no"?>
<!-- Created with Inkscape (http://www.inkscape.org/) -->

<svg
   xmlns:dc="http://purl.org/dc/elements/1.1/"
   xmlns:cc="http://creativecommons.org/ns#"
   xmlns:rdf="http://www.w3.org/1999/02/22-rdf-syntax-ns#"
   xmlns:svg="http://www.w3.org/2000/svg"
   xmlns="http://www.w3.org/2000/svg"
   xmlns:sodipodi="http://sodipodi.sourceforge.net/DTD/sodipodi-0.dtd"
   xmlns:inkscape="http://www.inkscape.org/namespaces/inkscape"
   width="744.09448819"
   height="1052.3622047"
   id="svg2"
   version="1.1"
   inkscape:version="0.48.5 r10040"
   sodipodi:docname="New document 1">
  <defs
     id="defs4">
    <linearGradient
       id="linearGradient3193">
      <stop
         offset="0"
         stop-color="#ffffff"
         id="stop3195" />
      <stop
         offset="1"
         stop-color="#ffffff"
         stop-opacity="0"
         id="stop3197" />
    </linearGradient>
    <radialGradient
       inkscape:collect="always"
       r="350"
       gradientTransform="matrix(1.8326,-0.034379,0.023888,1.2733,-291.29,129.01)"
       cx="344.65"
       cy="166.76"
       gradientUnits="userSpaceOnUse"
       id="radialGradient3769">
      <stop
         offset="0"
         style="stop-color:#ffffff"
         id="stop3765" />
      <stop
         offset="1"
         style="stop-color:#ffffff;stop-opacity:0"
         id="stop3767" />
    </radialGradient>
    <clipPath
       clipPathUnits="userSpaceOnUse"
       id="clipPath2991">
      <path
         sodipodi:cx="158.57143"
         sodipodi:cy="54.285713"
         transform="translate(191.43 352.36)"
         d="m748.57 54.286a590 265.71 0 1 1 -1180 0 590 265.71 0 1 1 1180 0z"
         sodipodi:type="arc"
         style="fill:#dbdee3"
         sodipodi:ry="265.71429"
         sodipodi:rx="590"
         id="path2993" />
    </clipPath>
  </defs>
  <sodipodi:namedview
     id="base"
     pagecolor="#ffffff"
     bordercolor="#666666"
     borderopacity="1.0"
     inkscape:pageopacity="0.0"
     inkscape:pageshadow="2"
     inkscape:zoom="1"
     inkscape:cx="5.4793105"
     inkscape:cy="747.58509"
     inkscape:document-units="px"
     inkscape:current-layer="layer1"
     showgrid="false"
     inkscape:window-width="1920"
     inkscape:window-height="1017"
     inkscape:window-x="0"
     inkscape:window-y="27"
     inkscape:window-maximized="1" />
  <metadata
     id="metadata7">
    <rdf:RDF>
      <cc:Work
         rdf:about="">
        <dc:format>image/svg+xml</dc:format>
        <dc:type
           rdf:resource="http://purl.org/dc/dcmitype/StillImage" />
        <dc:title></dc:title>
      </cc:Work>
    </rdf:RDF>
  </metadata>
  <g
     inkscape:label="Layer 1"
     inkscape:groupmode="layer"
     id="layer1">
    <rect
       style="fill:#ffffff;fill-opacity:1;stroke:none"
       id="rect4223"
       width="435"
       height="636"
       x="148"
       y="-1.6378174"
       inkscape:export-filename="/home/madbob/lavoro/ILS/2014/sistemainoperativo/sito/img/ragno.png"
       inkscape:export-xdpi="90"
       inkscape:export-ydpi="90" />
    <g
       transform="matrix(0.36692557,0,0,0.36692557,557.73732,270.79061)"
       id="g4663"
       inkscape:export-filename="/home/madbob/lavoro/ILS/2014/sistemainoperativo/sito/img/ragno.png"
       inkscape:export-xdpi="90"
       inkscape:export-ydpi="90">
      <path
         d="m -401.16,856.25 24.35,-2.48 -15.27,19.05"
         style="fill:none;stroke:#000000;stroke-width:3;stroke-linecap:round;stroke-linejoin:round"
         id="path2113"
         inkscape:connector-curvature="0" />
      <path
         d="m -414.71,842 21.65,-11.43 -7.02,23.39"
         style="fill:none;stroke:#000000;stroke-width:3;stroke-linecap:round;stroke-linejoin:round"
         id="path2111"
         inkscape:connector-curvature="0" />
      <path
         d="m -434.56,827.84 21.65,-11.42 -7.02,23.38"
         style="fill:none;stroke:#000000;stroke-width:3;stroke-linecap:round;stroke-linejoin:round"
         id="path2109"
         inkscape:connector-curvature="0" />
      <path
         d="m -396.14,876.61 25.46,9.26 -10.3,20.66 c 0,0 12.83,-5.68 11.64,3.74 -1.19,9.43 -9.43,12.23 -1.82,11.4 7.6,-0.83 -8.68,7.02 -8.68,7.02 0,0 -6.77,1.09 -5.9,-7.34 0.88,-8.44 5.91,-15.54 5.91,-15.54"
         style="fill:none;stroke:#000000;stroke-width:3;stroke-linecap:round;stroke-linejoin:round"
         id="path2107"
         inkscape:connector-curvature="0" />
      <path
         d="m -491.18,904.49 -23.46,13.56 13.74,18.55 c 0,0 -13.63,-3.36 -10.81,5.71 2.81,9.07 11.41,10.4 3.78,10.91 -7.63,0.51 9.76,5.4 9.76,5.4 0,0 6.87,-0.1 4.54,-8.26 -2.33,-8.15 -8.52,-14.27 -8.52,-14.27"
         style="fill:none;stroke:#000000;stroke-width:3;stroke-linecap:round;stroke-linejoin:round"
         id="path2105"
         inkscape:connector-curvature="0" />
      <path
         d="m -506.63,886.15 -25.21,9.93 10.85,20.39 c 0,0 -12.98,-5.35 -11.54,4.04 1.44,9.39 9.75,11.97 2.12,11.35 -7.62,-0.63 8.86,6.78 8.86,6.78 0,0 6.8,0.92 5.71,-7.49 -1.1,-8.41 -6.32,-15.37 -6.32,-15.37"
         style="fill:none;stroke:#000000;stroke-width:3;stroke-linecap:round;stroke-linejoin:round"
         id="path2103"
         inkscape:connector-curvature="0" />
      <path
         d="m -517.13,859.96 -26.19,-6.98 -3.38,22.84 c 0,0 -7.27,-12.01 -11.68,-3.6 -4.42,8.41 0.73,15.42 -5.03,10.39 -5.77,-5.03 3.09,10.72 3.09,10.72 0,0 4.93,4.77 9.04,-2.64 4.12,-7.42 4.05,-16.12 4.05,-16.12"
         style="fill:none;stroke:#000000;stroke-width:3;stroke-linecap:round;stroke-linejoin:round"
         id="path2089"
         inkscape:connector-curvature="0" />
      <path
         d="m -512.51,882.33 -22.95,-4.82 -2.75,22.85 c 0,0 -6.46,-11.29 -10.24,-2.63 -3.79,8.67 0.77,15.2 -4.31,10.68 -5.08,-4.52 2.8,10.36 2.8,10.36 0,0 4.35,4.33 7.88,-3.33 3.53,-7.67 3.4,-16.27 3.4,-16.27"
         style="fill:none;stroke:#000000;stroke-width:3;stroke-linecap:round;stroke-linejoin:round"
         id="path2099"
         inkscape:connector-curvature="0" />
      <path
         d="m -500.67,913.99 c -26.24,-19.34 -28.23,-52.36 -4.45,-73.7 23.78,-21.34 64.38,-22.96 90.62,-3.62 25.63,18.89 28.28,50.73 6.01,72.25 l -45.96,-8.14 -46.22,13.21 z"
         style="fill:#ffffff;stroke:#000000;stroke-width:4;stroke-linecap:round;stroke-linejoin:round"
         sodipodi:nodetypes="cccccc"
         id="path1291"
         inkscape:connector-curvature="0" />
      <path
         sodipodi:cx="280"
         sodipodi:cy="579.50507"
         transform="matrix(0.91955,0.078244,-0.062079,0.72958,-670.47,467.72)"
         d="m 334.28571,579.50507 a 54.285713,41.42857 0 1 1 -108.57142,0 54.285713,41.42857 0 1 1 108.57142,0 z"
         sodipodi:type="arc"
         style="fill:#fefdfe;stroke:#000000;stroke-width:4.86600018;stroke-linecap:round;stroke-linejoin:round"
         sodipodi:ry="41.42857"
         sodipodi:rx="54.285713"
         id="path2053" />
      <path
         sodipodi:cx="509.85794"
         sodipodi:cy="468.24564"
         transform="matrix(1.3823,0.67275,-0.67743,1.3919,-856.1,-109.88)"
         d="m 522.10678,468.24564 a 12.248839,13.014392 0 1 1 -24.49768,0 12.248839,13.014392 0 1 1 24.49768,0 z"
         sodipodi:type="arc"
         style="fill:#fefd41;stroke:#000000;stroke-width:2.59299994;stroke-linecap:round;stroke-linejoin:round"
         sodipodi:ry="13.014392"
         sodipodi:rx="12.248839"
         id="path2055" />
      <path
         sodipodi:cx="509.85794"
         sodipodi:cy="468.24564"
         transform="matrix(1.2262,0.92719,-0.93364,1.2347,-615.21,-166.03)"
         d="m 522.10678,468.24564 a 12.248839,13.014392 0 1 1 -24.49768,0 12.248839,13.014392 0 1 1 24.49768,0 z"
         sodipodi:type="arc"
         style="fill:#fefd41;stroke:#000000;stroke-width:2.59299994;stroke-linecap:round;stroke-linejoin:round"
         sodipodi:ry="13.014392"
         sodipodi:rx="12.248839"
         id="path2059" />
      <path
         sodipodi:cx="371.29294"
         sodipodi:cy="549.39423"
         transform="matrix(0.53989,0,0,0.76994,-665.18,453.43)"
         d="m 376.65181,549.39423 a 5.3588672,5.3588672 0 1 1 -10.71774,0 5.3588672,5.3588672 0 1 1 10.71774,0 z"
         sodipodi:type="arc"
         style="fill:#000000;stroke:#000000;stroke-width:2.59299994;stroke-linecap:round;stroke-linejoin:round"
         sodipodi:ry="5.3588672"
         sodipodi:rx="5.3588672"
         id="path2063" />
      <path
         sodipodi:cx="371.29294"
         sodipodi:cy="549.39423"
         transform="matrix(0.53989,0,0,0.76994,-621.54,451.14)"
         d="m 376.65181,549.39423 a 5.3588672,5.3588672 0 1 1 -10.71774,0 5.3588672,5.3588672 0 1 1 10.71774,0 z"
         sodipodi:type="arc"
         style="fill:#000000;stroke:#000000;stroke-width:2.59299994;stroke-linecap:round;stroke-linejoin:round"
         sodipodi:ry="5.3588672"
         sodipodi:rx="5.3588672"
         id="path2065" />
      <path
         d="m -480.91,924.18 c 13.48,6.22 60.93,-6.26 71.96,-15.9"
         style="fill:none;stroke:#000000;stroke-width:3;stroke-linecap:round;stroke-linejoin:round"
         id="path2071"
         inkscape:connector-curvature="0" />
      <path
         d="m -467.5,926.23 3.46,7.33 3.02,-7.76"
         style="fill:none;stroke:#000000;stroke-width:2.45129991;stroke-linecap:round;stroke-linejoin:round"
         id="path2073"
         inkscape:connector-curvature="0" />
      <path
         d="m -457.99,926.05 3.45,9.95 3.03,-10.53"
         style="fill:none;stroke:#000000;stroke-width:2.85529995;stroke-linecap:round;stroke-linejoin:round"
         id="path2075"
         inkscape:connector-curvature="0" />
      <path
         d="m -423.93,915.85 3.45,7.86 3.03,-8.32"
         style="fill:none;stroke:#000000;stroke-width:2.53719997;stroke-linecap:round;stroke-linejoin:round"
         id="path2077"
         inkscape:connector-curvature="0" />
      <path
         d="m -434.04,919.99 3.45,7.86 3.03,-8.32"
         style="fill:none;stroke:#000000;stroke-width:2.53719997;stroke-linecap:round;stroke-linejoin:round"
         id="path2079"
         inkscape:connector-curvature="0" />
      <path
         d="m -442.49,921.83 3.45,9.95 3.02,-10.54"
         style="fill:none;stroke:#000000;stroke-width:2.85529995;stroke-linecap:round;stroke-linejoin:round"
         id="path2081"
         inkscape:connector-curvature="0" />
      <path
         d="m -449.54,923.52 3.46,7.85 3.02,-8.32"
         style="fill:none;stroke:#000000;stroke-width:2.53719997;stroke-linecap:round;stroke-linejoin:round"
         id="path2083"
         inkscape:connector-curvature="0" />
      <path
         d="m -483.35,917.89 c 0.59,1.65 2.48,6.71 -0.95,7.71"
         style="fill:none;stroke:#000000;stroke-width:2.89829993;stroke-linecap:round;stroke-linejoin:round"
         id="path2087"
         inkscape:connector-curvature="0" />
      <path
         d="m -464.38,821.16 5.14,-421.44"
         style="fill:none;stroke:#000000;stroke-width:3;stroke-linecap:round;stroke-linejoin:round"
         sodipodi:nodetypes="cc"
         id="path2141"
         inkscape:connector-curvature="0" />
      <path
         d="m -468.6,560.88 c 0.93,0 0.93,0 0,0 z"
         style="fill:none;stroke:#000000;stroke-width:1px"
         id="path1902"
         inkscape:connector-curvature="0" />
    </g>
    <path
       id="path2419"
       d="m 348.23329,126.87556 c -3.6058,-0.0731 -7.28994,1.62606 -9.27206,4.52518 a 8.2309141,8.2309141 0 0 0 0,0.0741 l -21.21584,31.15612 c -5.68217,-0.48871 -11.43104,-0.47578 -17.21005,0 l -22.03361,-29.89563 c -2.66103,-3.62076 -8.25371,-5.30165 -12.60963,-3.48593 l -24.77772,10.31131 c -4.6752,1.94851 -7.35499,6.83014 -6.37959,11.869 l 6.82467,35.68059 c -4.1945,3.62717 -8.00682,7.57005 -11.49631,11.72183 l -37.09063,-5.56372 h -0.0742 c -4.45063,-0.64341 -9.4584,1.64146 -11.42391,6.37959 l -10.31297,24.77773 a 8.2309141,8.2309141 0 0 0 -0.0743,0.076 c -2.09488,5.05809 -0.23888,10.1131 4.00578,12.98184 l 30.71223,20.69668 c -0.4002,6.14387 -0.25046,12.28489 0.44509,18.39695 l -29.15501,21.21228 a 8.2309141,8.2309141 0 0 0 -0.0742,0.0742 c -3.90086,2.86423 -5.60715,7.84873 -3.5607,12.75918 l 4.37539,10.61088 0.0742,0.0742 4.30252,10.53374 a 8.2309141,8.2309141 0 0 0 0.0736,0.0736 c 2.17331,5.21453 6.67513,7.23795 11.64634,6.45389 a 8.2309141,8.2309141 0 0 0 0.0742,0 l 35.607,-5.71184 c 3.85197,4.76659 8.07662,9.13675 12.68511,13.12996 l -6.89826,36.33813 c -0.95189,5.03934 1.41963,9.95762 6.45389,12.01736 l 24.85131,10.16272 c 4.86154,1.98585 9.87264,0.24773 12.75918,-3.70907 l 22.10601,-30.19236 c 5.36621,0.4481 10.81788,0.41499 16.31987,0 l 20.54809,30.04281 c 2.9796,4.36851 8.25442,5.78448 13.0559,3.78337 l 24.77773,-10.31132 c 4.73953,-1.97531 7.09267,-6.96757 6.37958,-11.49821 l -5.71373,-36.6491 c 4.40672,-3.78004 8.44265,-7.86036 12.09166,-12.23978 l 37.01704,6.97303 a 8.2309141,8.2309141 0 0 0 0.0741,0 c 4.67425,0.85752 9.44179,-1.84639 11.42391,-5.9345 l 0.0741,0.0742 0.0741,-0.14837 a 8.2309141,8.2309141 0 0 0 0.14836,-0.3709 8.2309141,8.2309141 0 0 0 0.14836,-0.22255 l 9.79193,-24.03472 0.0949,-0.0736 a 8.2309141,8.2309141 0 0 0 0.3709,-0.74181 c 0.26143,-0.63573 0.53527,-1.51052 0.66764,-2.3738 0.64828,-4.22632 -1.22873,-8.00992 -4.37682,-10.31132 l -30.71222,-22.40273 c 0.47412,-4.94558 0.5539,-9.93483 0.29672,-14.98462 l 30.56268,-20.99341 c 0.0304,-0.0207 0.0441,-0.0533 0.0741,-0.0742 4.46844,-3.10707 5.5763,-8.50153 3.70906,-12.98184 l -5.86043,-14.09443 -5.86044,-14.02014 c -1.89961,-4.55793 -6.47858,-7.49884 -11.869,-6.45389 l -36.41647,6.9766 c -3.39216,-3.73636 -7.05968,-7.15226 -10.90523,-10.31179 l 5.78613,-37.68407 c 0.65043,-4.3037 -1.30084,-8.07567 -4.37491,-10.30942 -1.04447,-0.7608 -2.15778,-1.19022 -2.15304,-1.18808 a 8.2309141,8.2309141 0 0 0 -0.22076,-0.0743 l -0.29672,-0.0742 -23.738,-9.79193 -0.14837,-0.0742 a 8.2309141,8.2309141 0 0 0 -0.4439,-0.22266 8.2309141,8.2309141 0 0 0 -0.14955,-0.0741 c -1.11568,-0.4541 -2.35718,-0.6433 -3.5607,-0.66775 z m -37.83125,100.14588 c 15.22365,0.083 29.72947,9.04536 35.97731,24.03472 8.33156,19.98977 -1.1389,42.7735 -21.14154,51.11029 -20.00306,8.33702 -42.77587,-1.07025 -51.11029,-21.06748 -8.33702,-20.00306 1.07026,-42.77587 21.06748,-51.11028 4.97548,-2.07375 10.12426,-2.99503 15.20704,-2.96725 z"
       style="fill:#ffffff;stroke:#000000;stroke-width:2.37380004;stroke-opacity:1"
       inkscape:connector-curvature="0"
       inkscape:export-filename="/home/madbob/lavoro/ILS/2014/sistemainoperativo/sito/img/ragno.png"
       inkscape:export-xdpi="90"
       inkscape:export-ydpi="90" />
    <path
       id="path3485"
       d="m 523.78073,350.76888 c -2.15489,-0.86646 -4.76118,-0.68346 -6.61615,0.61042 a 5.3005905,5.3005905 0 0 0 -0.0169,0.0446 l -19.88332,13.92447 c -3.31056,-1.59034 -6.77572,-2.89379 -10.3646,-3.92536 l -6.45078,-23.02994 c -0.77673,-2.78751 -3.76149,-5.07542 -6.79894,-4.97544 l -17.27403,0.55845 c -3.26002,0.10712 -5.98733,2.43582 -6.5492,5.6929 l -4.02813,23.04493 c -3.35341,1.22772 -6.54867,2.73275 -9.59714,4.43722 l -21.0685,-11.81054 -0.0447,-0.0169 c -2.5336,-1.40262 -6.07063,-1.16877 -8.33504,1.23642 l -11.86235,12.56992 a 5.3005905,5.3005905 0 0 0 -0.0621,0.0288 c -2.4153,2.56838 -2.45051,6.03604 -0.54852,8.73186 l 13.77554,19.46942 c -1.64234,3.60881 -2.95284,7.34134 -3.92803,11.18092 l -22.39656,6.12506 a 5.3005905,5.3005905 0 0 0 -0.0616,0.0278 c -3.00255,0.83522 -5.16704,3.44791 -5.05459,6.87195 l 0.21485,7.38828 0.0278,0.0616 0.18855,7.32519 a 5.3005905,5.3005905 0 0 0 0.0275,0.0611 c 0.1195,3.63611 2.36917,5.8815 5.54187,6.54317 a 5.3005905,5.3005905 0 0 0 0.0447,0.0169 l 22.74679,4.68155 c 1.23262,3.74922 2.78011,7.34469 4.64474,10.8007 l -12.44263,20.31092 c -1.72267,2.81778 -1.41623,6.32068 1.14581,8.70939 l 12.64851,11.78863 c 2.47488,2.30481 5.8892,2.401 8.53009,0.67644 l 20.19959,-13.14102 c 3.12955,1.49383 6.42032,2.71733 9.8285,3.72234 l 5.52257,22.77974 c 0.79804,3.3105 3.65179,5.36636 6.99987,5.25636 l 17.27403,-0.55845 c 3.30488,-0.10859 5.8607,-2.57842 6.46463,-5.4696 l 4.91809,-23.37482 c 3.51608,-1.27138 6.87735,-2.80818 10.07381,-4.61337 l 20.70274,12.64251 a 5.3005905,5.3005905 0 0 0 0.0446,0.0169 c 2.61944,1.58255 6.10737,1.04156 8.23352,-0.96837 l 0.0277,0.0616 0.0784,-0.0725 a 5.3005905,5.3005905 0 0 0 0.17395,-0.18954 5.3005905,5.3005905 0 0 0 0.14011,-0.10018 l 11.37908,-12.2413 0.074,-0.0227 a 5.3005905,5.3005905 0 0 0 0.39257,-0.36215 c 0.30244,-0.32323 0.66689,-0.78761 0.9435,-1.27732 1.35439,-2.39739 1.08696,-5.10415 -0.28403,-7.20818 l -13.38642,-20.49688 c 1.41355,-2.87028 2.59958,-5.85682 3.59648,-8.95667 l 23.1944,-5.67218 c 0.023,-0.006 0.0387,-0.0221 0.0615,-0.0278 3.39976,-0.85202 5.29735,-3.8481 5.19472,-6.97222 l -0.31465,-9.82493 -0.33161,-9.78019 c -0.10442,-3.17824 -2.19128,-5.99377 -5.67596,-6.59394 l -23.52275,-4.10448 c -1.19069,-3.0239 -2.62031,-5.9176 -4.21561,-8.69752 l 12.07985,-21.37516 c 1.37332,-2.44351 1.05852,-5.1602 -0.28332,-7.20661 -0.4555,-0.69642 -1.02804,-1.20896 -1.02567,-1.20659 a 5.3005905,5.3005905 0 0 0 -0.116,-0.0951 l -0.16178,-0.11235 -12.0626,-11.3114 -0.0724,-0.0785 a 5.3005905,5.3005905 0 0 0 -0.21655,-0.23534 5.3005905,5.3005905 0 0 0 -0.0732,-0.0787 c -0.56833,-0.52795 -1.27286,-0.92506 -1.99209,-1.21429 z m -45.62539,51.68319 c 9.14939,3.52228 15.8412,12.22836 16.18504,22.68062 0.45823,13.93897 -10.44192,25.50019 -24.38983,25.95863 -13.94822,0.45849 -25.51728,-10.40112 -25.97553,-24.34523 -0.45848,-13.94822 10.40112,-25.51728 24.34523,-25.97552 3.46944,-0.11407 6.78037,0.50547 9.83509,1.6815 z"
       style="fill:#ffffff;stroke:#000000;stroke-width:1.52869308;stroke-opacity:1"
       inkscape:connector-curvature="0"
       inkscape:export-filename="/home/madbob/lavoro/ILS/2014/sistemainoperativo/sito/img/ragno.png"
       inkscape:export-xdpi="90"
       inkscape:export-ydpi="90" />
    <path
       id="path3940"
       style="fill:#ffffff;stroke:#000000;stroke-width:1.52869308;stroke-opacity:1"
       d="m 519.74073,27.518879 c -2.15489,-0.866464 -4.76118,-0.683455 -6.61615,0.610421 a 5.3005905,5.3005905 0 0 0 -0.0169,0.0446 l -19.88332,13.924469 c -3.31056,-1.590347 -6.77572,-2.893791 -10.3646,-3.925367 L 476.40899,15.14307 c -0.77673,-2.787512 -3.76149,-5.075421 -6.79894,-4.975444 l -17.27403,0.55845 c -3.26002,0.107127 -5.98733,2.435822 -6.5492,5.692907 l -4.02813,23.044929 c -3.35341,1.227722 -6.54867,2.732751 -9.59714,4.437219 l -21.0685,-11.81054 -0.0447,-0.01692 c -2.5336,-1.40262 -6.07063,-1.168773 -8.33504,1.236419 l -11.86235,12.569922 a 5.3005905,5.3005905 0 0 0 -0.0621,0.0288 c -2.4153,2.56838 -2.45051,6.036041 -0.54852,8.73186 l 13.77554,19.469418 c -1.64234,3.608811 -2.95284,7.341339 -3.92803,11.180918 l -22.39656,6.125062 a 5.3005905,5.3005905 0 0 0 -0.0616,0.02775 c -3.00255,0.835224 -5.16704,3.447918 -5.05459,6.871955 l 0.21485,7.388275 0.0278,0.0616 0.18855,7.32519 a 5.3005905,5.3005905 0 0 0 0.0275,0.0611 c 0.1195,3.63611 2.36917,5.8815 5.54187,6.54317 a 5.3005905,5.3005905 0 0 0 0.0447,0.0169 l 22.74679,4.68155 c 1.23262,3.74922 2.78011,7.34469 4.64474,10.8007 l -12.44263,20.31092 c -1.72267,2.81778 -1.41623,6.32069 1.14581,8.7094 l 12.64851,11.78863 c 2.47488,2.30481 5.8892,2.401 8.53009,0.67644 l 20.19959,-13.14102 c 3.12955,1.49383 6.42032,2.71733 9.8285,3.72234 l 5.52257,22.77974 c 0.79804,3.3105 3.65179,5.36636 6.99987,5.25636 l 17.27403,-0.55845 c 3.30488,-0.10859 5.8607,-2.57842 6.46463,-5.4696 l 4.91809,-23.37482 c 3.51608,-1.27138 6.87735,-2.80818 10.07381,-4.61337 l 20.70274,12.64251 a 5.3005905,5.3005905 0 0 0 0.0446,0.0169 c 2.61944,1.58255 6.10737,1.04156 8.23352,-0.96837 l 0.0277,0.0616 0.0784,-0.0725 a 5.3005905,5.3005905 0 0 0 0.17395,-0.18954 5.3005905,5.3005905 0 0 0 0.14011,-0.10018 l 11.37908,-12.2413 0.074,-0.0227 a 5.3005905,5.3005905 0 0 0 0.39257,-0.36215 c 0.30244,-0.32323 0.66689,-0.78761 0.9435,-1.27732 1.35439,-2.39739 1.08696,-5.10415 -0.28403,-7.20818 l -13.38642,-20.49688 c 1.41355,-2.87028 2.59958,-5.85682 3.59648,-8.95667 l 23.1944,-5.67218 c 0.023,-0.006 0.0387,-0.022 0.0615,-0.0278 3.39976,-0.85202 5.29735,-3.8481 5.19472,-6.97222 l -0.31465,-9.824934 -0.33161,-9.780186 c -0.10442,-3.178249 -2.19128,-5.993777 -5.67596,-6.593947 L 527.89662,79.1303 c -1.19069,-3.023894 -2.62031,-5.917597 -4.21561,-8.697512 L 535.7609,49.057689 c 1.37332,-2.443513 1.05852,-5.160203 -0.28332,-7.206608 -0.4555,-0.696416 -1.02804,-1.208962 -1.02567,-1.206592 a 5.3005905,5.3005905 0 0 0 -0.116,-0.0951 l -0.16178,-0.112353 -12.0626,-11.3114 -0.0724,-0.07851 a 5.3005905,5.3005905 0 0 0 -0.21655,-0.235344 5.3005905,5.3005905 0 0 0 -0.0732,-0.07871 c -0.56833,-0.527955 -1.27286,-0.925062 -1.99209,-1.214292 z m -45.62539,51.683195 c 9.14939,3.522278 15.8412,12.22836 16.18504,22.680616 0.45823,13.93897 -10.44192,25.50019 -24.38983,25.95863 -13.94822,0.45849 -25.51728,-10.40112 -25.97553,-24.34523 -0.45848,-13.948222 10.40112,-25.517281 24.34523,-25.975525 3.46944,-0.114061 6.78037,0.505473 9.83509,1.681509 z"
       inkscape:connector-curvature="0"
       inkscape:export-filename="/home/madbob/lavoro/ILS/2014/sistemainoperativo/sito/img/ragno.png"
       inkscape:export-xdpi="90"
       inkscape:export-ydpi="90" />
  </g>
</svg>
